<svg width="289" height="120" viewBox="0 0 289 120" fill="none" xmlns="http://www.w3.org/2000/svg">
<path d="M107.857 40H64.4991V46.6632H105.693V46.6692C106.885 46.6692 107.837 47.6255 107.837 48.8127V71.1878L107.832 71.2067C107.825 72.3887 106.863 73.3386 105.683 73.3386H73.3105C72.1254 73.3386 71.1554 72.381 71.1554 71.1876V62.1484C71.1554 60.9612 72.1254 59.9974 73.3105 59.9974H101.162V53.3432H71.1427C67.4734 53.3432 64.4989 56.3123 64.4989 59.979V73.3574C64.4989 77.0266 67.4734 80 71.1427 80H107.857C111.529 80 114.5 77.0266 114.5 73.3574V46.6448C114.5 42.9761 111.53 40 107.857 40Z" fill="#159BD7"/>
<path d="M132.546 60.7626H137.055L134.821 54.0703H134.759L132.546 60.7626ZM139.114 49.446L144.308 64.9837C144.925 66.8793 145.361 67.318 146.444 67.318H147.5V70.0533H136.158V67.318H137.088C138.02 67.318 138.796 67.1942 138.796 66.8563C138.796 66.537 138.765 66.1956 138.64 65.7282L137.992 63.4956H131.651L131.272 64.7395C130.933 65.8244 130.807 66.285 130.807 66.7214C130.807 67.223 131.898 67.318 132.743 67.318H133.637V70.0533H124.5V67.318H125.558C126.646 67.318 127.074 66.8793 127.705 64.9837L132.895 49.446H139.114Z" fill="black"/>
<path d="M154.467 62.7743C154.467 65.9503 155.18 67.8428 156.919 67.8428C158.668 67.8428 159.375 65.9503 159.375 62.7743C159.375 59.607 158.668 57.7125 156.919 57.7125C155.18 57.7125 154.467 59.607 154.467 62.7743ZM149.303 53.2705C149.303 52.3924 149.086 51.9316 148.185 51.9316H146.756V49.446H154.467V57.1812C155.615 55.8754 157.079 55.0369 158.471 55.0369C163.135 55.0369 164.872 58.6802 164.872 62.7743C164.872 66.8793 163.135 70.5139 158.471 70.5139C156.513 70.5139 154.771 69.8312 153.687 68.1211L152.789 70.0555H149.303V53.2705Z" fill="black"/>
<path d="M171.903 62.7743C171.903 65.9503 172.624 67.8428 174.361 67.8428C176.103 67.8428 176.814 65.9503 176.814 62.7743C176.814 59.607 176.103 57.7125 174.361 57.7125C172.624 57.7125 171.903 59.607 171.903 62.7743ZM166.741 53.2705C166.741 52.3924 166.522 51.9316 165.629 51.9316H164.196V49.446H171.903V57.1812C173.056 55.8754 174.515 55.0369 175.913 55.0369C180.577 55.0369 182.319 58.6802 182.319 62.7743C182.319 66.8793 180.577 70.5139 175.913 70.5139C173.955 70.5139 172.213 69.8312 171.127 68.1211L170.223 70.0555H166.741V53.2705Z" fill="black"/>
<path d="M189.312 62.7754C189.312 66.4419 189.964 68.0282 191.83 68.0282C193.692 68.0282 194.343 66.4419 194.343 62.7754C194.343 59.1088 193.692 57.5247 191.83 57.5247C189.964 57.5247 189.312 59.1088 189.312 62.7754ZM199.849 62.7754C199.849 67.7509 196.458 70.5139 191.83 70.5139C187.191 70.5139 183.808 67.7509 183.808 62.7754C183.808 57.803 187.191 55.0369 191.83 55.0369C196.458 55.0369 199.849 57.803 199.849 62.7754Z" fill="black"/>
<path d="M222.01 63.0272V65.451C222.01 66.8793 221.702 67.7245 220.52 67.7245C219.806 67.7245 219.467 67.1921 219.467 66.537V57.991H223.283V55.5032H219.467V49.7298H216.384C216.132 52.305 215.327 55.5031 212.219 55.5031H207.372V49.7298H204.297C204.047 52.305 203.237 55.5031 200.133 55.5031V57.9909H202.214V65.7911C202.214 68.9627 203.985 70.5137 207.181 70.5137C210.919 70.5137 212.402 68.8401 212.402 65.7911V63.027H209.923V65.4508C209.923 66.8792 209.61 67.7243 208.432 67.7243C207.711 67.7243 207.372 67.1919 207.372 66.5368V57.9909H214.311V65.7911C214.311 68.9627 216.074 70.5137 219.277 70.5137C223.005 70.5137 224.501 68.8401 224.501 65.7911V63.027L222.01 63.0272Z" fill="black"/>
</svg>
