<svg width="289" height="120" viewBox="0 0 289 120" fill="none" xmlns="http://www.w3.org/2000/svg">
<path d="M98.6016 47.5798H103.288V54.9018H110.533V47.5798H115.22V65.5284H110.533V58.6396H103.288V65.5284H98.6016V47.5798Z" fill="#231F20"/>
<path d="M134.299 47.5798L127.816 59.7914V65.5284H123.132V59.9203L116.525 47.5798H121.212L125.46 55.2858L129.609 47.5798H134.299Z" fill="#231F20"/>
<path d="M148.657 49.2252C149.919 50.3221 150.55 51.8715 150.552 53.8735C150.552 55.9905 149.921 57.6359 148.657 58.8096C147.394 59.9834 145.619 60.5675 143.332 60.562H140.131V65.5311H135.445V47.5798H143.332C145.619 47.5798 147.394 48.1283 148.657 49.2252ZM145.314 56.1057C145.832 55.6285 146.091 54.9375 146.091 54.0325C146.091 53.1604 145.83 52.4904 145.309 52.0224C144.788 51.5544 144.05 51.3194 143.096 51.3176H140.131V56.8215H143.101C144.058 56.8215 144.795 56.5829 145.314 56.1057Z" fill="#231F20"/>
<path d="M152.332 47.5798H165.835V51.3176H157.019V54.6715H164.919V58.3846L157.019 58.4093V61.7906H166.11V65.5284H152.332V47.5798Z" fill="#231F20"/>
<path d="M178.091 65.5284L175.48 60.5593H172.65V65.5284H167.963V47.5798H175.368C177.744 47.5798 179.584 48.1283 180.885 49.2252C182.187 50.3221 182.843 51.8761 182.854 53.8872C182.885 55.1031 182.601 56.3063 182.032 57.3809C181.483 58.3646 180.655 59.1627 179.651 59.6735L183.386 65.5284H178.091ZM172.65 56.8215H175.392C176.347 56.8215 177.087 56.5829 177.605 56.1057C178.124 55.6285 178.387 54.9375 178.387 54.0325C178.387 53.1275 178.126 52.4913 177.605 52.0224C177.084 51.5534 176.347 51.3176 175.392 51.3176H172.65V56.8215Z" fill="#231F20"/>
<path d="M184.497 47.5798H189.184V65.5284H184.497V47.5798Z" fill="#231F20"/>
<path d="M205.41 48.5012C206.863 49.2696 208.076 50.4246 208.914 51.8386C209.752 53.2526 210.183 54.8707 210.16 56.5143C210.184 58.172 209.754 59.8047 208.917 61.2356C208.08 62.6665 206.867 63.8409 205.41 64.6316C203.882 65.4342 202.182 65.8535 200.456 65.8535C198.73 65.8535 197.03 65.4342 195.502 64.6316C194.059 63.8551 192.855 62.7004 192.019 61.2915C191.169 59.8446 190.73 58.1925 190.752 56.5143C190.729 54.8707 191.16 53.2526 191.998 51.8386C192.836 50.4246 194.049 49.2696 195.502 48.5012C197.033 47.7101 198.732 47.2972 200.456 47.2972C202.18 47.2972 203.878 47.7101 205.41 48.5012ZM198.036 51.9675C197.273 52.4341 196.65 53.0971 196.231 53.8872C195.791 54.7156 195.563 55.6397 195.565 56.5777C195.567 57.5157 195.801 58.4387 196.245 59.2649C196.672 60.0492 197.293 60.7103 198.049 61.1845C198.787 61.6517 199.644 61.8964 200.518 61.8893C201.384 61.8952 202.233 61.6504 202.964 61.1845C203.707 60.711 204.312 60.0486 204.716 59.2649C205.138 58.4314 205.358 57.5102 205.358 56.576C205.358 55.6418 205.138 54.7207 204.716 53.8872C204.316 53.1008 203.711 52.4374 202.964 51.9675C202.231 51.5075 201.382 51.2667 200.518 51.2737C199.642 51.2672 198.781 51.5077 198.036 51.9675Z" fill="#231F20"/>
<path d="M224.05 47.5798H228.402V65.5284H224.305L216.163 54.8004V65.5284H211.775V47.5798H215.888L224.055 58.3846L224.05 47.5798Z" fill="#231F20"/>
<path d="M98.5961 72.1291H99.4462L101.788 76.6046L104.105 72.1291H104.956V78.272H104.297V73.1575L101.98 77.6248H101.577L99.2406 73.1575V78.272H98.5934L98.5961 72.1291Z" fill="#231F20"/>
<path d="M110.679 78.272V77.5535C110.313 78.0508 109.748 78.2994 108.984 78.2994C108.699 78.3055 108.417 78.2424 108.161 78.1157C107.935 78.0029 107.745 77.8291 107.613 77.6138C107.483 77.3999 107.417 77.1537 107.421 76.9035C107.414 76.7187 107.452 76.535 107.531 76.3679C107.61 76.2008 107.729 76.0553 107.876 75.9437C108.248 75.6851 108.696 75.5568 109.149 75.579H110.668V75.2773C110.676 75.1288 110.652 74.9801 110.597 74.8418C110.542 74.7035 110.458 74.5789 110.35 74.4766C110.088 74.2723 109.759 74.1743 109.428 74.2024C108.9 74.2223 108.391 74.4064 107.972 74.7289L107.681 74.2462C107.965 74.0522 108.271 73.8929 108.592 73.7718C108.907 73.6672 109.237 73.6171 109.568 73.6237C110.043 73.5925 110.513 73.7425 110.882 74.0433C111.038 74.1935 111.161 74.3754 111.242 74.5769C111.323 74.7783 111.36 74.9947 111.351 75.2115V78.2637L110.679 78.272ZM110.13 77.4493C110.404 77.2718 110.6 76.9975 110.679 76.6814V76.1329H109.239C108.455 76.1329 108.063 76.3852 108.063 76.8898C108.059 77.0084 108.083 77.1261 108.134 77.2334C108.184 77.3406 108.259 77.4344 108.353 77.5069C108.575 77.6721 108.848 77.7546 109.124 77.74C109.478 77.7447 109.825 77.6445 110.122 77.452L110.13 77.4493Z" fill="#231F20"/>
<path d="M116.339 77.9566C116.027 78.1734 115.658 78.2927 115.278 78.2994C115.122 78.3075 114.966 78.2823 114.821 78.2256C114.676 78.1689 114.545 78.0818 114.436 77.9703C114.207 77.6977 114.093 77.3466 114.118 76.9913V74.334H113.457V73.7855H114.123V72.5761H114.801V73.7855H116.265V74.334H114.801V76.8789C114.782 77.0907 114.836 77.3024 114.954 77.4794C115.011 77.5451 115.082 77.5965 115.162 77.6294C115.242 77.6622 115.329 77.6757 115.415 77.6687C115.676 77.649 115.929 77.5672 116.153 77.4301L116.339 77.9566Z" fill="#231F20"/>
<path d="M121.862 74.3285C122.257 74.8756 122.437 75.5494 122.367 76.2207H118.593C118.636 76.641 118.831 77.0311 119.142 77.3176C119.453 77.5947 119.858 77.742 120.274 77.729C120.545 77.7303 120.813 77.6781 121.064 77.5754C121.304 77.4763 121.522 77.3288 121.703 77.1421L122.081 77.537C121.853 77.7847 121.572 77.9778 121.259 78.1019C120.925 78.236 120.568 78.3031 120.208 78.2994C119.791 78.3072 119.379 78.2061 119.013 78.006C118.665 77.8164 118.38 77.5308 118.19 77.1833C117.999 76.8083 117.899 76.3934 117.899 75.9725C117.899 75.5516 117.999 75.1367 118.19 74.7618C118.381 74.4153 118.666 74.13 119.013 73.9391C119.376 73.7375 119.785 73.6353 120.2 73.6429C120.512 73.6182 120.824 73.6674 121.113 73.7865C121.402 73.9057 121.659 74.0914 121.862 74.3285ZM121.752 75.675C121.756 75.4745 121.718 75.2755 121.64 75.0906C121.563 74.9056 121.448 74.7387 121.303 74.6003C121.158 74.4619 120.986 74.3551 120.797 74.2866C120.609 74.2181 120.408 74.1894 120.208 74.2024C119.805 74.19 119.413 74.3323 119.111 74.6C118.811 74.8805 118.629 75.2649 118.601 75.675H121.752Z" fill="#231F20"/>
<path d="M125.956 73.9062C126.26 73.7221 126.61 73.627 126.966 73.6319V74.2983C126.756 74.2854 126.546 74.3138 126.347 74.3821C126.149 74.4503 125.966 74.5569 125.808 74.696C125.505 74.9916 125.326 75.3917 125.306 75.8148V78.2829H124.624V73.6566H125.306V74.685C125.441 74.3668 125.667 74.0958 125.956 73.9062Z" fill="#231F20"/>
<path d="M129.62 71.9865C129.703 72.0783 129.749 72.1975 129.749 72.3211C129.749 72.4447 129.703 72.5639 129.62 72.6557C129.534 72.7398 129.419 72.7869 129.299 72.7869C129.179 72.7869 129.064 72.7398 128.978 72.6557C128.897 72.5631 128.852 72.4442 128.852 72.3211C128.852 72.198 128.897 72.0791 128.978 71.9865C129.064 71.9025 129.179 71.8554 129.299 71.8554C129.419 71.8554 129.534 71.9025 129.62 71.9865ZM128.967 73.6319H129.637V78.2473H128.962L128.967 73.6319Z" fill="#231F20"/>
<path d="M135.258 78.272V77.5535C134.893 78.0508 134.329 78.2994 133.566 78.2994C133.281 78.3053 132.999 78.2423 132.744 78.1157C132.517 78.0029 132.327 77.8291 132.195 77.6138C132.066 77.3999 131.999 77.1537 132.003 76.9035C131.996 76.7187 132.034 76.535 132.113 76.3679C132.192 76.2008 132.311 76.0553 132.458 75.9437C132.831 75.6851 133.278 75.5568 133.731 75.579H135.25V75.2773C135.258 75.129 135.234 74.9807 135.18 74.8425C135.126 74.7043 135.042 74.5795 134.935 74.4766C134.672 74.2726 134.342 74.1747 134.011 74.2024C133.479 74.2234 132.967 74.4104 132.546 74.7371L132.255 74.2545C132.539 74.0604 132.845 73.9011 133.166 73.78C133.481 73.6755 133.811 73.6254 134.142 73.6319C134.617 73.6008 135.087 73.7507 135.456 74.0515C135.612 74.2017 135.735 74.3836 135.816 74.5851C135.897 74.7865 135.934 75.0029 135.925 75.2198V78.272H135.258ZM134.71 77.4493C134.983 77.2718 135.179 76.9975 135.258 76.6814V76.1329H133.819C133.034 76.1329 132.642 76.3852 132.642 76.8898C132.639 77.0083 132.664 77.1258 132.714 77.2329C132.765 77.3401 132.839 77.4339 132.933 77.5069C133.155 77.6721 133.427 77.7546 133.703 77.74C134.057 77.7451 134.405 77.6448 134.702 77.452L134.71 77.4493Z" fill="#231F20"/>
<path d="M138.577 71.7617H139.259V78.272H138.577V71.7617Z" fill="#231F20"/>
<path d="M143.897 74.2983C143.686 74.2351 143.467 74.2027 143.247 74.2024C143.016 74.1909 142.786 74.244 142.583 74.3559C142.502 74.4036 142.436 74.4726 142.392 74.5553C142.348 74.6381 142.328 74.7313 142.334 74.8249C142.331 74.8911 142.342 74.9571 142.367 75.0189C142.391 75.0806 142.427 75.1369 142.473 75.1841C142.574 75.2816 142.694 75.358 142.824 75.409C142.964 75.4638 143.159 75.5296 143.406 75.6064C143.673 75.6855 143.935 75.7817 144.19 75.8944C144.39 75.9868 144.566 76.1249 144.703 76.2975C144.85 76.4981 144.924 76.7428 144.914 76.9913C144.925 77.182 144.885 77.3722 144.799 77.5429C144.714 77.7137 144.585 77.8591 144.426 77.9648C144.068 78.1974 143.646 78.3142 143.219 78.2994C142.887 78.2991 142.558 78.2416 142.246 78.1294C141.95 78.0262 141.678 77.8628 141.448 77.6495L141.722 77.1504C141.927 77.3384 142.166 77.4847 142.427 77.5809C142.69 77.6815 142.968 77.7344 143.249 77.7372C143.5 77.7484 143.748 77.6875 143.965 77.5617C144.053 77.508 144.125 77.4315 144.174 77.3403C144.222 77.2491 144.245 77.1465 144.239 77.0434C144.244 76.9431 144.221 76.8435 144.172 76.7555C144.124 76.6675 144.052 76.5944 143.965 76.5443C143.706 76.402 143.429 76.2933 143.143 76.2207C142.884 76.1474 142.631 76.0558 142.386 75.9465C142.193 75.8552 142.024 75.721 141.892 75.5543C141.745 75.3641 141.672 75.1278 141.684 74.8879C141.674 74.7047 141.71 74.522 141.79 74.357C141.871 74.1919 141.991 74.05 142.142 73.9446C142.482 73.72 142.883 73.6078 143.291 73.6237C143.558 73.6234 143.824 73.6622 144.08 73.7389C144.322 73.8083 144.553 73.9117 144.766 74.046L144.492 74.5726C144.308 74.4526 144.107 74.3602 143.897 74.2983Z" fill="#231F20"/>
<path d="M155.25 78.3789L154.222 77.3615C153.99 77.6446 153.7 77.8748 153.372 78.0365C153.043 78.1983 152.684 78.2879 152.318 78.2994C151.998 78.3023 151.682 78.227 151.397 78.08C151.125 77.9437 150.896 77.7361 150.733 77.4794C150.573 77.2231 150.489 76.9262 150.492 76.6238C150.479 76.2561 150.612 75.8981 150.862 75.6284C151.162 75.3275 151.508 75.0766 151.888 74.8852C151.697 74.6473 151.537 74.3866 151.411 74.1091C151.312 73.893 151.259 73.6585 151.257 73.4208C151.252 73.2416 151.286 73.0634 151.358 72.8992C151.43 72.7351 151.538 72.5891 151.674 72.4719C151.976 72.2184 152.363 72.0873 152.757 72.1045C153.13 72.0872 153.495 72.2094 153.783 72.4473C153.911 72.5557 154.013 72.6916 154.081 72.845C154.15 72.9984 154.183 73.1652 154.178 73.333C154.182 73.5765 154.11 73.8153 153.972 74.0159C153.832 74.2179 153.656 74.3926 153.454 74.5314C153.195 74.7048 152.926 74.8641 152.65 75.0086C152.985 75.3953 153.487 75.9163 154.161 76.5717C154.411 76.1966 154.62 75.7957 154.784 75.3761L155.25 75.7271C155.063 76.1633 154.83 76.5788 154.556 76.9666L155.617 78.0087L155.25 78.3789ZM153.116 77.5562C153.388 77.4067 153.631 77.2109 153.835 76.9776C153.045 76.1878 152.497 75.6119 152.189 75.2499C151.886 75.4043 151.608 75.6051 151.367 75.845C151.178 76.0405 151.073 76.3025 151.076 76.5745C151.072 76.7346 151.103 76.8937 151.167 77.0406C151.231 77.1874 151.326 77.3185 151.446 77.4246C151.693 77.6479 152.016 77.7677 152.349 77.7592C152.617 77.7576 152.881 77.6898 153.116 77.5617V77.5562ZM151.948 73.972C152.06 74.207 152.196 74.4294 152.354 74.6356C152.691 74.467 153.008 74.2619 153.3 74.0241C153.402 73.939 153.483 73.8323 153.537 73.7117C153.592 73.5912 153.618 73.4599 153.616 73.3275C153.618 73.225 153.599 73.1232 153.559 73.0287C153.519 72.9341 153.46 72.8491 153.385 72.7791C153.212 72.6279 152.987 72.5502 152.757 72.5624C152.633 72.5568 152.509 72.5757 152.393 72.618C152.276 72.6604 152.169 72.7254 152.077 72.8092C151.993 72.8878 151.927 72.983 151.882 73.0888C151.837 73.1946 151.815 73.3086 151.817 73.4235C151.821 73.6154 151.866 73.8041 151.948 73.9775V73.972Z" fill="#231F20"/>
<path d="M160.567 72.1291H165.287V72.7791H163.277V78.2637H162.575V72.7791H160.576L160.567 72.1291Z" fill="#231F20"/>
<path d="M170.111 74.3285C170.506 74.8756 170.686 75.5494 170.615 76.2207H166.842C166.883 76.6414 167.079 77.032 167.39 77.3176C167.702 77.593 168.107 77.74 168.523 77.729C168.794 77.7303 169.062 77.6781 169.313 77.5754C169.552 77.4754 169.768 77.328 169.949 77.1421L170.325 77.537C170.096 77.7847 169.815 77.9778 169.502 78.1019C169.169 78.2362 168.813 78.3033 168.454 78.2994C168.036 78.3072 167.623 78.2061 167.256 78.006C166.908 77.8164 166.623 77.5308 166.433 77.1833C166.242 76.8083 166.142 76.3934 166.142 75.9725C166.142 75.5516 166.242 75.1367 166.433 74.7618C166.624 74.4153 166.909 74.13 167.256 73.9391C167.62 73.7375 168.03 73.6353 168.446 73.6429C168.758 73.6182 169.071 73.6674 169.36 73.7865C169.65 73.9056 169.907 74.0913 170.111 74.3285ZM170.001 75.675C169.996 75.2713 169.834 74.8855 169.548 74.6C169.401 74.4643 169.228 74.3593 169.04 74.291C168.852 74.2228 168.652 74.1926 168.452 74.2024C168.049 74.1903 167.656 74.3326 167.355 74.6C167.056 74.8816 166.875 75.2655 166.847 75.675H170.001Z" fill="#231F20"/>
<path d="M174.72 74.2462C174.424 74.2402 174.132 74.3161 173.876 74.4656C173.628 74.6094 173.425 74.8205 173.292 75.0744C173.153 75.3525 173.081 75.659 173.081 75.9698C173.081 76.2806 173.153 76.5871 173.292 76.8652C173.425 77.1191 173.628 77.3301 173.876 77.4739C174.132 77.6235 174.424 77.6994 174.72 77.6933C175.002 77.6985 175.282 77.6463 175.543 77.5398C175.778 77.4425 175.987 77.2913 176.152 77.0983L176.547 77.5014C176.333 77.7556 176.062 77.9565 175.757 78.0882C175.422 78.2325 175.06 78.3045 174.696 78.2994C174.284 78.3103 173.877 78.2139 173.514 78.0197C173.168 77.8285 172.882 77.5433 172.691 77.197C172.498 76.8225 172.398 76.4074 172.398 75.9862C172.398 75.565 172.498 75.1499 172.691 74.7755C172.883 74.4299 173.168 74.1449 173.514 73.9528C173.875 73.7521 174.283 73.65 174.696 73.6566C175.039 73.6528 175.379 73.7133 175.699 73.8349C175.99 73.9481 176.254 74.1199 176.476 74.3395L176.1 74.8139C175.919 74.632 175.704 74.4881 175.468 74.3906C175.231 74.2931 174.977 74.244 174.72 74.2462Z" fill="#231F20"/>
<path d="M182.69 74.1091C182.851 74.2875 182.975 74.4963 183.055 74.7232C183.136 74.9501 183.17 75.1907 183.156 75.4309V78.272H182.47V75.6064C182.481 75.4306 182.455 75.2544 182.396 75.0886C182.336 74.9227 182.244 74.7705 182.125 74.6411C181.997 74.5201 181.845 74.4265 181.68 74.3661C181.514 74.3057 181.338 74.2799 181.162 74.2901C180.948 74.2821 180.735 74.3206 180.537 74.403C180.339 74.4854 180.161 74.6096 180.016 74.7673C179.727 75.1149 179.579 75.5582 179.602 76.0095V78.272H178.916V71.7617H179.602V74.6932C179.903 73.9967 180.504 73.6429 181.398 73.6319C181.635 73.6182 181.871 73.6535 182.094 73.7356C182.316 73.8177 182.519 73.9449 182.69 74.1091Z" fill="#231F20"/>
<path d="M189.526 74.1091C189.687 74.2878 189.811 74.4966 189.891 74.7235C189.97 74.9504 190.004 75.1909 189.99 75.4309V78.272H189.307V75.6064C189.317 75.4303 189.292 75.254 189.232 75.088C189.172 74.9221 189.079 74.7701 188.959 74.6411C188.831 74.5199 188.68 74.4261 188.515 74.3657C188.35 74.3053 188.174 74.2796 187.999 74.2901C187.8 74.2832 187.601 74.3166 187.415 74.3882C187.229 74.4598 187.059 74.5682 186.916 74.7069C186.63 75.0031 186.463 75.3931 186.444 75.8039V78.272H185.761V73.6566H186.444V74.674C186.762 73.9912 187.357 73.6429 188.235 73.6319C188.471 73.6182 188.708 73.6535 188.93 73.7356C189.153 73.8177 189.356 73.9449 189.526 74.1091Z" fill="#231F20"/>
<path d="M195.686 73.9254C196.032 74.1158 196.318 74.4012 196.508 74.7481C196.712 75.1171 196.815 75.5332 196.807 75.9547C196.814 76.377 196.711 76.7938 196.508 77.1641C196.317 77.5102 196.032 77.7953 195.686 77.9868C195.311 78.183 194.895 78.2856 194.472 78.2856C194.049 78.2856 193.633 78.183 193.259 77.9868C192.913 77.7951 192.628 77.51 192.436 77.1641C192.24 76.7907 192.137 76.3752 192.137 75.9533C192.137 75.5315 192.24 75.116 192.436 74.7426C192.627 74.3958 192.912 74.1105 193.259 73.9199C193.634 73.7269 194.05 73.6263 194.472 73.6263C194.894 73.6263 195.31 73.7269 195.686 73.9199V73.9254ZM193.615 74.4546C193.365 74.6003 193.161 74.8131 193.026 75.0689C192.888 75.349 192.817 75.6566 192.817 75.9684C192.817 76.2802 192.888 76.5879 193.026 76.8679C193.162 77.1202 193.366 77.3292 193.615 77.4712C193.879 77.6152 194.174 77.6907 194.475 77.6907C194.775 77.6907 195.071 77.6152 195.335 77.4712C195.585 77.3269 195.789 77.1137 195.921 76.8569C196.06 76.5774 196.133 76.2696 196.133 75.9574C196.133 75.6453 196.06 75.3375 195.921 75.058C195.787 74.8009 195.581 74.5878 195.329 74.4437C195.066 74.2997 194.772 74.2242 194.472 74.2242C194.173 74.2242 193.878 74.2997 193.615 74.4437V74.4546Z" fill="#231F20"/>
<path d="M199.144 71.7617H199.84V78.272H199.157L199.144 71.7617Z" fill="#231F20"/>
<path d="M205.706 73.9254C206.053 74.1151 206.339 74.4007 206.529 74.7481C206.733 75.1171 206.836 75.5332 206.828 75.9547C206.835 76.377 206.732 76.7938 206.529 77.1641C206.338 77.5108 206.053 77.7962 205.706 77.9868C205.332 78.183 204.916 78.2856 204.494 78.2856C204.072 78.2856 203.656 78.183 203.282 77.9868C202.937 77.794 202.652 77.5092 202.459 77.1641C202.263 76.7907 202.16 76.3752 202.16 75.9533C202.16 75.5315 202.263 75.116 202.459 74.7426C202.651 74.3966 202.936 74.1116 203.282 73.9199C203.657 73.727 204.072 73.6263 204.494 73.6263C204.916 73.6263 205.331 73.727 205.706 73.9199V73.9254ZM203.636 74.4546C203.386 74.5997 203.182 74.8127 203.049 75.0689C202.91 75.3484 202.838 75.6563 202.838 75.9684C202.838 76.2805 202.91 76.5884 203.049 76.8679C203.181 77.1247 203.385 77.3379 203.636 77.4822C203.899 77.6262 204.195 77.7017 204.495 77.7017C204.796 77.7017 205.091 77.6262 205.355 77.4822C205.606 77.338 205.811 77.1248 205.945 76.8679C206.084 76.5884 206.156 76.2805 206.156 75.9684C206.156 75.6563 206.084 75.3484 205.945 75.0689C205.81 74.8119 205.604 74.5987 205.352 74.4546C205.089 74.3106 204.794 74.2351 204.494 74.2351C204.194 74.2351 203.899 74.3106 203.636 74.4546Z" fill="#231F20"/>
<path d="M213.149 73.6566V77.7893C213.159 78.1978 213.058 78.6013 212.858 78.9576C212.667 79.2899 212.38 79.5574 212.035 79.7254C211.656 79.9126 211.238 80.0066 210.815 79.9996C210.125 79.9928 209.458 79.7543 208.92 79.3223L209.235 78.8232C209.452 79.0107 209.698 79.16 209.965 79.2647C210.228 79.3646 210.507 79.4139 210.788 79.41C211.234 79.4335 211.672 79.2786 212.005 78.9795C212.158 78.8276 212.276 78.6453 212.354 78.4445C212.431 78.2438 212.466 78.0289 212.455 77.814V77.112C212.301 77.4116 212.064 77.6603 211.772 77.8277C211.46 77.9977 211.11 78.0837 210.755 78.0773C210.371 78.0878 209.991 77.993 209.658 77.803C209.341 77.614 209.082 77.3406 208.912 77.0132C208.726 76.657 208.632 76.2603 208.638 75.8587C208.632 75.4588 208.726 75.0638 208.912 74.7097C209.082 74.3841 209.34 74.1132 209.658 73.9281C209.992 73.74 210.371 73.6452 210.755 73.6539C211.107 73.6452 211.456 73.7313 211.764 73.9034C212.054 74.074 212.29 74.3218 212.447 74.6192V73.6786L213.149 73.6566ZM211.701 77.2984C211.935 77.1585 212.125 76.955 212.249 76.7116C212.38 76.4469 212.448 76.1555 212.448 75.8601C212.448 75.5647 212.38 75.2733 212.249 75.0086C212.125 74.7642 211.935 74.5591 211.701 74.4163C211.452 74.2705 211.167 74.1964 210.878 74.2024C210.59 74.1958 210.306 74.2678 210.055 74.4108C209.816 74.553 209.62 74.7578 209.488 75.0031C209.349 75.2666 209.278 75.5608 209.282 75.8587C209.277 76.1558 209.348 76.4493 209.488 76.7116C209.619 76.9559 209.816 77.1591 210.055 77.2984C210.307 77.4394 210.59 77.5135 210.878 77.5135C211.166 77.5135 211.45 77.4394 211.701 77.2984Z" fill="#231F20"/>
<path d="M216.434 71.9865C216.517 72.0783 216.563 72.1975 216.563 72.3211C216.563 72.4447 216.517 72.5639 216.434 72.6557C216.349 72.7402 216.234 72.7877 216.115 72.7877C215.995 72.7877 215.88 72.7402 215.795 72.6557C215.712 72.5639 215.666 72.4447 215.666 72.3211C215.666 72.1975 215.712 72.0783 215.795 71.9865C215.88 71.902 215.995 71.8545 216.115 71.8545C216.234 71.8545 216.349 71.902 216.434 71.9865ZM215.781 73.6319H216.456V78.2473H215.781V73.6319Z" fill="#231F20"/>
<path d="M222.684 74.3285C223.079 74.8756 223.259 75.5494 223.188 76.2207H219.415C219.457 76.6414 219.652 77.032 219.963 77.3176C220.275 77.593 220.68 77.74 221.096 77.729C221.367 77.7303 221.635 77.6781 221.886 77.5754C222.127 77.4761 222.345 77.3286 222.528 77.1421L222.903 77.537C222.675 77.7847 222.394 77.9778 222.081 78.1019C221.748 78.2362 221.392 78.3033 221.033 78.2994C220.615 78.3072 220.202 78.2061 219.835 78.006C219.487 77.8164 219.201 77.5308 219.012 77.1833C218.821 76.8083 218.721 76.3934 218.721 75.9725C218.721 75.5516 218.821 75.1367 219.012 74.7618C219.203 74.4153 219.488 74.13 219.835 73.9391C220.198 73.7375 220.609 73.6353 221.025 73.6429C221.336 73.6191 221.648 73.6687 221.936 73.7878C222.224 73.9069 222.48 74.0921 222.684 74.3285ZM222.574 75.675C222.569 75.2713 222.407 74.8855 222.122 74.6C221.974 74.4643 221.801 74.3593 221.613 74.291C221.425 74.2228 221.225 74.1926 221.025 74.2024C220.622 74.1903 220.229 74.3326 219.928 74.6C219.629 74.8816 219.448 75.2655 219.42 75.675H222.574Z" fill="#231F20"/>
<path d="M227.277 74.2983C227.066 74.2351 226.847 74.2027 226.627 74.2024C226.397 74.1905 226.168 74.2437 225.966 74.3559C225.885 74.4033 225.819 74.4721 225.774 74.5549C225.73 74.6376 225.709 74.731 225.714 74.8249C225.712 74.8914 225.723 74.9576 225.748 75.0195C225.772 75.0813 225.809 75.1374 225.857 75.1841C225.957 75.2822 226.077 75.3587 226.208 75.409C226.348 75.4638 226.54 75.5296 226.786 75.6064C227.054 75.685 227.316 75.7812 227.571 75.8944C227.771 75.9861 227.947 76.1243 228.083 76.2975C228.233 76.4971 228.307 76.7425 228.295 76.9913C228.306 77.1815 228.267 77.3713 228.182 77.542C228.098 77.7127 227.97 77.8584 227.812 77.9648C227.453 78.1966 227.032 78.3133 226.605 78.2994C226.273 78.2991 225.942 78.2416 225.629 78.1294C225.333 78.0262 225.061 77.8628 224.831 77.6495L225.105 77.1504C225.311 77.3384 225.551 77.4847 225.813 77.5809C226.075 77.682 226.354 77.735 226.636 77.7372C226.886 77.7487 227.135 77.6877 227.351 77.5617C227.439 77.508 227.511 77.4315 227.56 77.3403C227.608 77.2491 227.631 77.1465 227.626 77.0434C227.63 76.9431 227.607 76.8435 227.558 76.7555C227.51 76.6675 227.438 76.5944 227.351 76.5443C227.092 76.4027 226.815 76.294 226.529 76.2207C226.271 76.1475 226.019 76.0558 225.774 75.9465C225.581 75.8562 225.411 75.7219 225.278 75.5543C225.134 75.3631 225.061 75.1273 225.072 74.8879C225.062 74.705 225.098 74.5224 225.178 74.3574C225.258 74.1924 225.378 74.0503 225.528 73.9446C225.868 73.7204 226.27 73.6082 226.677 73.6237C226.944 73.6234 227.21 73.6622 227.466 73.7389C227.708 73.8083 227.939 73.9117 228.152 74.046L227.878 74.5726C227.692 74.4516 227.49 74.3592 227.277 74.2983Z" fill="#231F20"/>
<path d="M78.3522 40V46.5432L85.8278 50.8596V53.7062H66.3436V50.8596L73.8219 46.5377V40.0027L60.5984 47.6456V65.5284L73.8219 73.152V66.4251L66.3436 62.1087V59.4514H85.8278V62.1087L78.3522 66.4251V73.1575L91.5758 65.5284V47.6456L78.3522 40Z" fill="#0075C9"/>
</svg>
