<svg width="289" height="120" viewBox="0 0 289 120" fill="none" xmlns="http://www.w3.org/2000/svg">
<path d="M61.916 70.0258L62.8463 76.0207L66.6705 79.2765L65.7403 73.385L61.916 70.0258Z" fill="#77777A"/>
<path d="M56.8514 73.5401V73.6434L57.8333 80L37.3165 62.1705L36.438 56.0724H37.0065" fill="#2C3579"/>
<path d="M45.5336 55.814L65.7403 73.3333L86.4121 57.6227L66.4121 40L45.5336 55.814Z" fill="#B0AFB1"/>
<path d="M36.438 56.0724L56.9031 74.2119L77.4716 58.4496L73.0788 54.677L57.8333 66.2532L53.6473 62.7907L69.0995 51.1111L65.0685 47.5969L49.668 59.2765L45.6886 55.7623L61.0892 44.031L57.0581 40.4651L36.438 56.0724Z" fill="#4D508C"/>
<path d="M56.9031 74.2636L62.1227 70.2326L63.0013 76.124L57.8333 80L56.9031 74.2636Z" fill="#022169"/>
<path d="M65.637 73.4367L86.4121 57.6227L87.1873 63.8243L66.6705 79.2765L65.637 73.4367Z" fill="#868688"/>
<path d="M100.417 67.8036H101.089V70.5426H104.707V67.8036H105.43V74.1085H104.707V71.1628H101.089V74.1085H100.417V67.8036Z" fill="#77777A"/>
<path d="M107.032 67.8036H111.425V68.4755H107.756V70.5426H111.322V71.1628H107.756V73.4367H111.425V74.1085H107.032V67.8036Z" fill="#77777A"/>
<path d="M114.319 67.8036H115.456L117.782 74.0569H117.058L116.438 72.4548H113.286L112.717 74.0569H111.994L114.319 67.8036ZM116.283 71.8863L115.043 68.5271H114.836L113.596 71.8863H116.283Z" fill="#77777A"/>
<path d="M118.764 67.8036H119.435V73.4367H123.001V74.1085H118.764V67.8036Z" fill="#77777A"/>
<path d="M121.761 67.8036H126.464V68.4755H124.448V74.1085H123.725V68.4755H121.761V67.8036Z" fill="#77777A"/>
<path d="M127.239 67.8036H127.911V70.5426H131.528V67.8036H132.2V74.1085H131.528V71.1628H127.911V74.1085H127.239V67.8036Z" fill="#77777A"/>
<path d="M135.766 67.7519H136.49C137.988 67.7519 138.609 68.1654 138.609 69.5607V69.8191H137.885V69.6641C137.885 68.6305 137.523 68.4238 136.438 68.4238H135.973C135.404 68.4238 134.991 68.4755 134.733 68.7339C134.422 69.0439 134.422 69.4574 134.422 70.0775V71.8863C134.422 72.5065 134.422 72.9716 134.733 73.23C135.043 73.5401 135.456 73.5401 135.973 73.5401H136.438C137.523 73.5401 137.885 73.2817 137.885 72.1964C137.885 72.093 137.885 71.9897 137.885 71.8863H138.609V72.2997C138.609 73.7468 138.04 74.1602 136.49 74.1602H135.766C134.216 74.1602 133.699 73.5917 133.699 71.9897V69.8708C133.647 68.3204 134.164 67.7519 135.766 67.7519Z" fill="#77777A"/>
<path d="M141.348 67.8036H142.484L144.81 74.0569H144.087L143.466 72.4548H140.314L139.745 74.0569H139.022L141.348 67.8036ZM143.311 71.8863L142.071 68.5271H141.864L140.624 71.8863H143.311Z" fill="#77777A"/>
<path d="M145.792 67.8036H148.634C149.978 67.8036 150.495 68.1137 150.495 69.2506V70.1809C150.495 70.8527 150.236 71.2145 149.668 71.3178C150.288 71.4729 150.495 71.8346 150.495 72.5581V74.1085H149.771V72.8165C149.771 71.8863 149.513 71.6796 148.738 71.6796H146.516V74.1085H145.844V67.8036H145.792ZM146.464 68.4755V71.0078H148.479C149.358 71.0078 149.771 70.9044 149.771 70.1292V69.4057C149.771 68.5788 149.41 68.5271 148.479 68.5271H146.464V68.4755Z" fill="#77777A"/>
<path d="M151.942 67.8036H156.335V68.4755H152.614V70.5426H156.231V71.1628H152.614V73.4367H156.335V74.1085H151.942V67.8036Z" fill="#77777A"/>
<path d="M163.518 67.8036C164.862 67.8036 165.172 68.1137 165.172 69.354C165.172 70.1809 165.068 70.5943 164.448 70.801C165.172 71.0078 165.327 71.4212 165.327 72.3514C165.327 73.7985 164.862 74.1085 163.26 74.1085H160.572V67.8036H163.518ZM163.57 70.5426C164.397 70.5426 164.5 70.2842 164.5 69.4574C164.5 68.5788 164.345 68.4755 163.26 68.4755H161.296V70.5426H163.57ZM163.621 73.4367C164.655 73.4367 164.655 73.1266 164.655 72.2481C164.655 71.2662 164.397 71.1628 163.156 71.1628H161.296V73.4367H163.621Z" fill="#77777A"/>
<path d="M167.394 67.8036V71.938C167.394 72.5581 167.394 72.9199 167.704 73.1783C168.014 73.4367 168.376 73.4367 168.893 73.4367H169.565C170.081 73.4367 170.495 73.4367 170.805 73.1783C171.063 72.9199 171.063 72.5581 171.063 71.938V67.8036H171.787V72.0413C171.787 73.6434 171.218 74.2119 169.616 74.2119H168.841C167.239 74.2119 166.671 73.6434 166.671 72.0413V67.8553H167.394V67.8036Z" fill="#77777A"/>
<path d="M173.854 72.0413V72.1447C173.854 72.8165 173.906 73.1783 174.216 73.3333C174.474 73.4884 175.043 73.4884 175.973 73.4884C176.645 73.4884 177.006 73.4367 177.213 73.1783C177.317 73.0749 177.368 72.7649 177.368 72.3514C177.368 71.5762 177.317 71.3178 176.645 71.2661L174.733 71.1111C173.647 71.0078 173.182 70.646 173.182 69.4574C173.182 68.7855 173.286 68.3204 173.647 68.0103C173.957 67.7003 174.526 67.7003 175.404 67.7003H175.611C176.541 67.7003 177.162 67.7003 177.627 68.1137C177.885 68.3204 177.988 68.6822 177.988 69.2506C177.988 69.354 177.988 69.4574 177.988 69.5607H177.265V69.4574C177.265 69.0439 177.213 68.7855 177.11 68.6305C176.903 68.4238 176.335 68.4238 175.404 68.4238C174.267 68.4238 173.957 68.5271 173.957 69.509C173.957 70.2326 174.112 70.4393 174.733 70.491L176.696 70.646C177.782 70.7494 178.092 71.1628 178.092 72.2997C178.092 72.9199 178.04 73.385 177.73 73.7468C177.317 74.2119 176.696 74.2119 175.714 74.2119H175.456C174.629 74.2119 174.061 74.2119 173.647 73.7985C173.337 73.4884 173.182 73.0233 173.182 72.4031C173.182 72.2997 173.182 72.1964 173.182 72.093H173.854V72.0413Z" fill="#77777A"/>
<path d="M180.314 67.8036H179.642V74.0569H180.314V67.8036Z" fill="#77777A"/>
<path d="M181.968 67.8036H183.001L186.412 73.4367V67.8036H187.136V74.1085H186.05L182.64 68.4755V74.1085H181.968V67.8036Z" fill="#77777A"/>
<path d="M188.738 67.8036H193.182V68.4755H189.461V70.5426H193.027V71.1628H189.461V73.4367H193.182V74.1085H188.738V67.8036Z" fill="#77777A"/>
<path d="M194.939 72.0413V72.1447C194.939 72.8165 194.991 73.1783 195.301 73.3333C195.559 73.4884 196.18 73.4884 197.058 73.4884C197.73 73.4884 198.143 73.4367 198.35 73.1783C198.453 73.0749 198.505 72.7649 198.505 72.3514C198.505 71.5762 198.454 71.3178 197.782 71.2661L195.87 71.1111C194.733 71.0078 194.319 70.646 194.319 69.4574C194.319 68.7855 194.422 68.3204 194.784 68.0103C195.094 67.7003 195.663 67.7003 196.541 67.7003H196.748C197.678 67.7003 198.298 67.7003 198.764 68.1137C199.022 68.3204 199.125 68.6822 199.125 69.2506C199.125 69.354 199.125 69.4574 199.125 69.5607H198.402V69.4574C198.402 69.0439 198.35 68.7855 198.247 68.6305C198.04 68.4238 197.472 68.4238 196.49 68.4238C195.353 68.4238 195.043 68.5271 195.043 69.509C195.043 70.2326 195.198 70.4393 195.818 70.491L197.782 70.646C198.867 70.7494 199.177 71.1628 199.177 72.2997C199.177 72.9199 199.125 73.385 198.815 73.7468C198.402 74.2119 197.782 74.2119 196.8 74.2119H196.49C195.663 74.2119 195.094 74.2119 194.681 73.7985C194.371 73.4884 194.216 73.0233 194.216 72.4031C194.216 72.2997 194.216 72.1964 194.216 72.093H194.939V72.0413Z" fill="#77777A"/>
<path d="M201.193 72.0413V72.1447C201.193 72.8165 201.244 73.1783 201.554 73.3333C201.813 73.4884 202.433 73.4884 203.311 73.4884C203.983 73.4884 204.397 73.4367 204.603 73.1783C204.707 73.0749 204.758 72.7649 204.758 72.3514C204.758 71.5762 204.707 71.3178 204.035 71.2661L202.123 71.1111C200.986 71.0078 200.572 70.646 200.572 69.4574C200.572 68.7855 200.676 68.3204 201.037 68.0103C201.348 67.7003 201.916 67.7003 202.743 67.7003H202.95C203.88 67.7003 204.5 67.7003 204.965 68.1137C205.224 68.3204 205.327 68.6822 205.327 69.2506C205.327 69.354 205.327 69.4574 205.327 69.5607H204.603V69.4574C204.603 69.0439 204.552 68.7855 204.448 68.6305C204.242 68.4238 203.673 68.4238 202.743 68.4238C201.606 68.4238 201.296 68.5271 201.296 69.509C201.296 70.2326 201.451 70.4393 202.071 70.491L204.035 70.646C205.12 70.7494 205.43 71.1628 205.43 72.2997C205.43 72.9199 205.379 73.385 205.068 73.7468C204.655 74.2119 204.035 74.2119 203.053 74.2119H202.743C201.916 74.2119 201.348 74.2119 200.934 73.7985C200.624 73.4884 200.469 73.0233 200.469 72.4031C200.469 72.2997 200.469 72.1964 200.469 72.093H201.193V72.0413Z" fill="#77777A"/>
<path d="M210.495 72.0413V72.1447C210.495 72.8165 210.547 73.1783 210.857 73.3333C211.115 73.4884 211.683 73.4884 212.614 73.4884C213.286 73.4884 213.647 73.4367 213.906 73.1783C214.009 73.0749 214.061 72.7649 214.061 72.3514C214.061 71.5762 214.009 71.3178 213.389 71.2661L211.477 71.1111C210.391 71.0078 209.926 70.646 209.926 69.4574C209.926 68.7855 210.03 68.3204 210.391 68.0103C210.702 67.7003 211.27 67.7003 212.149 67.7003H212.355C213.286 67.7003 213.906 67.7003 214.371 68.1137C214.629 68.3204 214.733 68.6822 214.733 69.2506C214.733 69.354 214.733 69.4574 214.733 69.5607H214.009V69.4574C214.009 69.0439 213.957 68.7855 213.854 68.6305C213.647 68.4238 213.079 68.4238 212.097 68.4238C210.96 68.4238 210.65 68.5271 210.65 69.509C210.65 70.2326 210.805 70.4393 211.425 70.491L213.389 70.646C214.474 70.7494 214.784 71.1628 214.784 72.2997C214.784 72.9199 214.733 73.385 214.422 73.7468C214.009 74.2119 213.389 74.2119 212.407 74.2119H212.097C211.27 74.2119 210.702 74.2119 210.288 73.7985C209.978 73.4884 209.823 73.0233 209.823 72.4031C209.823 72.2997 209.823 72.1964 209.823 72.093H210.495V72.0413Z" fill="#77777A"/>
<path d="M216.231 67.8036H220.624V68.4755H216.903V70.5426H220.521V71.1628H216.903V73.4367H220.624V74.1085H216.231V67.8036Z" fill="#77777A"/>
<path d="M221.864 67.8036H224.707C226.05 67.8036 226.567 68.1137 226.567 69.2506V70.1809C226.567 70.8527 226.309 71.2145 225.74 71.3178C226.36 71.4729 226.567 71.8346 226.567 72.5581V74.1085H225.844V72.8165C225.844 71.8863 225.585 71.6796 224.81 71.6796H222.588V74.1085H221.916V67.8036H221.864ZM222.536 68.4755V71.0078H224.552C225.43 71.0078 225.844 70.9044 225.844 70.1292V69.4057C225.844 68.5788 225.482 68.5271 224.552 68.5271H222.536V68.4755Z" fill="#77777A"/>
<path d="M228.014 67.8036L230.03 73.4367L231.994 67.8036H232.769L230.443 74.1085H229.565L227.239 67.8036H228.014Z" fill="#77777A"/>
<path d="M234.474 67.8036H233.751V74.0569H234.474V67.8036Z" fill="#77777A"/>
<path d="M237.988 67.7519H238.712C240.211 67.7519 240.831 68.1654 240.831 69.5607V69.8191H240.056V69.6641C240.056 68.6305 239.694 68.4238 238.609 68.4238H238.143C237.575 68.4238 237.161 68.4755 236.903 68.7339C236.593 69.0439 236.593 69.4574 236.593 70.0775V71.8863C236.593 72.5065 236.593 72.9716 236.903 73.23C237.213 73.5401 237.627 73.5401 238.143 73.5401H238.609C239.694 73.5401 240.056 73.2817 240.056 72.1964C240.056 72.093 240.056 71.9897 240.056 71.8863H240.779V72.2997C240.779 73.7468 240.211 74.1602 238.66 74.1602H237.988C236.438 74.1602 235.921 73.5917 235.921 71.9897V69.8708C235.87 68.3204 236.386 67.7519 237.988 67.7519Z" fill="#77777A"/>
<path d="M242.071 67.8036H246.464V68.4755H242.795V70.5426H246.36V71.1628H242.795V73.4367H246.464V74.1085H242.071V67.8036Z" fill="#77777A"/>
<path d="M248.273 72.0413V72.1447C248.273 72.8165 248.324 73.1783 248.634 73.3333C248.893 73.4884 249.513 73.4884 250.391 73.4884C251.063 73.4884 251.477 73.4367 251.683 73.1783C251.787 73.0749 251.839 72.7649 251.839 72.3514C251.839 71.5762 251.787 71.3178 251.167 71.2661L249.255 71.1111C248.118 71.0078 247.704 70.646 247.704 69.4574C247.704 68.7855 247.808 68.3204 248.169 68.0103C248.479 67.7003 249.048 67.7003 249.926 67.7003H250.133C251.063 67.7003 251.683 67.7003 252.149 68.1137C252.407 68.3204 252.51 68.6822 252.51 69.2506C252.51 69.354 252.51 69.4574 252.51 69.5607H251.787V69.4574C251.787 69.0439 251.735 68.7855 251.632 68.6305C251.425 68.4238 250.857 68.4238 249.875 68.4238C248.738 68.4238 248.428 68.5271 248.428 69.509C248.428 70.2326 248.583 70.4393 249.203 70.491L251.167 70.646C252.252 70.7494 252.562 71.1628 252.562 72.2997C252.562 72.9199 252.51 73.385 252.2 73.7468C251.787 74.2119 251.167 74.2119 250.185 74.2119H249.875C249.048 74.2119 248.479 74.2119 248.066 73.7985C247.756 73.4884 247.601 73.0233 247.601 72.4031C247.601 72.2997 247.601 72.1964 247.601 72.093H248.273V72.0413Z" fill="#77777A"/>
<path d="M100.262 47.1835H116.18V48.9922H102.226V54.0568H115.611V55.8656H102.226V61.5504H116.18V63.3075H100.262V47.1835Z" fill="#022169"/>
<path d="M124.913 63.3075V47.1835H128.066L142.64 61.4987V47.1835H144.655V63.3075H141.709L126.929 48.7855V63.3075H124.913Z" fill="#022169"/>
<path d="M170.857 57.7778V56.9509H162.588V55.1421H172.924V57.7778C172.924 59.8966 172.924 61.3953 171.632 62.4806C170.547 63.4109 168.738 63.5142 165.999 63.5142H160.211C157.678 63.5142 155.921 63.3592 154.733 62.3773C153.596 61.3953 153.182 59.8966 153.182 57.6227V53.23C153.182 50.7494 153.544 49.0956 154.733 48.1654C155.87 47.1835 157.627 47.0284 160.211 47.0284H165.999C170.908 47.0284 172.769 47.8553 172.769 51.5762C172.769 51.8346 172.769 52.1447 172.769 52.4548H170.908V52.1964C170.908 49.6124 169.875 48.7855 167.136 48.7855H159.435C157.678 48.7855 156.645 49.0439 155.973 49.9742C155.404 50.7494 155.404 51.7313 155.404 53.1266V57.3643C155.404 58.708 155.404 59.7416 155.973 60.5168C156.593 61.447 157.73 61.7054 159.435 61.7054H167.084C170.288 61.6537 170.857 60.8269 170.857 57.7778Z" fill="#022169"/>
<path d="M189.151 47.1835H191.839L201.244 63.3592H199.125L197.006 59.7933H184.138L182.071 63.3592H179.797L189.151 47.1835ZM195.973 58.0362L190.495 48.7339L185.12 58.0362H195.973Z" fill="#022169"/>
<path d="M224.965 57.7778V56.9509H216.696V55.1421H226.981V57.7778C226.981 59.8966 226.981 61.3953 225.689 62.4806C224.603 63.4109 222.795 63.5142 220.056 63.5142H214.267C211.735 63.5142 209.978 63.3592 208.789 62.3773C207.652 61.3953 207.239 59.8966 207.239 57.6227V53.23C207.239 50.7494 207.601 49.0956 208.789 48.1654C209.926 47.1835 211.683 47.0284 214.267 47.0284H220.056C224.965 47.0284 226.826 47.8553 226.826 51.5762C226.826 51.8346 226.826 52.1447 226.826 52.4548H224.965V52.1964C224.965 49.6124 223.932 48.7855 221.193 48.7855H213.492C211.735 48.7855 210.702 49.0439 210.03 49.9742C209.461 50.7494 209.461 51.7313 209.461 53.1266V57.3643C209.461 58.708 209.461 59.7416 210.03 60.5168C210.65 61.447 211.787 61.7054 213.492 61.7054H221.141C224.397 61.6537 224.965 60.8269 224.965 57.7778Z" fill="#022169"/>
<path d="M235.87 47.1835H251.787V48.9922H237.833V54.0568H251.218V55.8656H237.833V61.5504H251.787V63.3075H235.87V47.1835Z" fill="#022169"/>
</svg>
