<svg xmlns="http://www.w3.org/2000/svg" width="24" height="24" viewBox="0 0 24 24" fill="none" stroke="currentColor" stroke-width="2" stroke-linecap="round" stroke-linejoin="round"><path d="M4.5 22V11a1.5 1.5 0 0 1 3 0v11"></path><path d="M8 22V9a1.5 1.5 0 0 1 3 0v13"></path><path d="M11.5 22V10a1.5 1.5 0 0 1 3 0v12"></path><path d="M15 22V12.5a1.5 1.5 0 0 1 3 0V22"></path><path d="M4.9 12V10.5a1.1 1.1 0 0 1 2.2 0V12z" fill="currentColor" stroke="none"></path><path d="M8.4 10V8.5a1.1 1.1 0 0 1 2.2 0V10z" fill="currentColor" stroke="none"></path><path d="M11.9 11V9.5a1.1 1.1 0 0 1 2.2 0V11z" fill="currentColor" stroke="none"></path><path d="M15.4 13.5V12a1.1 1.1 0 0 1 2.2 0V13.5z" fill="currentColor" stroke="none"></path><path d="M20.5 6v2.4M19.3 7.2h2.4"></path></svg>