<svg width="219" height="34" viewBox="0 0 219 34" fill="none" xmlns="http://www.w3.org/2000/svg">
<path d="M48.4205 1.70361C51.6302 1.70361 54.1378 4.21121 54.1378 7.42094C54.1378 10.6307 51.6302 13.1383 48.4205 13.1383C45.2107 13.1383 42.7031 10.6307 42.7031 7.42094C42.7031 4.21121 45.311 1.70361 48.4205 1.70361ZM48.4205 10.6307C50.1256 10.6307 51.6302 9.22641 51.6302 7.52124C51.6302 5.81608 50.2259 4.31152 48.4205 4.31152C46.7153 4.31152 45.311 5.71577 45.311 7.52124C45.311 9.12611 46.7153 10.6307 48.4205 10.6307Z" fill="#6E408D"/>
<path d="M55.9431 2.20521C55.9431 2.0046 56.0434 1.9043 56.244 1.9043H58.1498C58.3504 1.9043 58.4507 2.0046 58.4507 2.20521V6.21737H62.9644V2.20521C62.9644 2.0046 63.0647 1.9043 63.2653 1.9043H65.171C65.3716 1.9043 65.472 2.0046 65.472 2.20521V12.6368C65.472 12.8374 65.3716 12.9377 65.171 12.9377H63.165C62.9644 12.9377 62.864 12.8374 62.864 12.6368V8.52436H58.3504V12.6368C58.3504 12.8374 58.2501 12.9377 58.0495 12.9377H56.1437C55.9431 12.9377 55.8428 12.8374 55.8428 12.6368V2.20521H55.9431Z" fill="#6E408D"/>
<path d="M68.2803 2.20521C68.2803 2.0046 68.3806 1.9043 68.5812 1.9043H70.487C70.6876 1.9043 70.7879 2.0046 70.7879 2.20521V12.6368C70.7879 12.8374 70.6876 12.9377 70.487 12.9377H68.5812C68.3806 12.9377 68.2803 12.8374 68.2803 12.6368V2.20521Z" fill="#6E408D"/>
<path d="M78.2105 1.70361C81.4202 1.70361 83.9278 4.21121 83.9278 7.42094C83.9278 10.6307 81.4202 13.1383 78.2105 13.1383C75.0008 13.1383 72.4932 10.6307 72.4932 7.42094C72.4932 4.21121 75.0008 1.70361 78.2105 1.70361ZM78.2105 10.6307C79.9157 10.6307 81.4202 9.22641 81.4202 7.52124C81.4202 5.81608 80.016 4.31152 78.2105 4.31152C76.5053 4.31152 75.1011 5.71577 75.1011 7.52124C75.0008 9.12611 76.5053 10.6307 78.2105 10.6307Z" fill="#6E408D"/>
<path d="M94.5601 1.70361C96.165 1.70361 97.2683 2.20513 98.3716 3.20817C98.472 3.30848 98.472 3.50908 98.3716 3.60939L97.168 4.91334C97.0677 5.01364 96.8671 5.01364 96.7668 4.91334C96.165 4.41182 95.3625 4.11091 94.6604 4.11091C92.8549 4.11091 91.551 5.61547 91.551 7.32063C91.551 9.12611 92.8549 10.5304 94.6604 10.5304C95.3625 10.5304 96.165 10.2294 96.7668 9.72793C96.8671 9.62762 97.0677 9.62762 97.168 9.72793L98.3716 11.0319C98.472 11.1322 98.472 11.3328 98.3716 11.4331C97.2683 12.4361 95.9644 12.9377 94.5601 12.9377C91.3504 12.9377 88.8428 10.4301 88.8428 7.22033C88.8428 4.0106 91.3504 1.70361 94.5601 1.70361Z" fill="#6E408D"/>
<path d="M105.193 1.70361C108.403 1.70361 110.91 4.21121 110.91 7.42094C110.91 10.6307 108.403 13.1383 105.193 13.1383C101.983 13.1383 99.4756 10.6307 99.4756 7.42094C99.4756 4.21121 102.083 1.70361 105.193 1.70361ZM105.193 10.6307C106.898 10.6307 108.403 9.22641 108.403 7.52124C108.403 5.81608 106.998 4.31152 105.193 4.31152C103.488 4.31152 102.083 5.71577 102.083 7.52124C102.083 9.12611 103.488 10.6307 105.193 10.6307Z" fill="#6E408D"/>
<path d="M112.815 2.20521C112.815 2.0046 112.915 1.9043 113.116 1.9043H115.022C115.222 1.9043 115.323 2.0046 115.323 2.20521V8.62466C115.323 9.728 116.125 10.6307 117.229 10.6307C118.332 10.6307 119.235 9.728 119.235 8.62466V2.20521C119.235 2.0046 119.335 1.9043 119.536 1.9043H121.441C121.642 1.9043 121.742 2.0046 121.742 2.20521V8.72497C121.742 11.1323 119.736 13.1383 117.229 13.1383C114.721 13.1383 112.715 11.1323 112.715 8.72497V2.20521H112.815Z" fill="#6E408D"/>
<path d="M124.551 2.00453C124.551 1.80392 124.651 1.70361 124.852 1.70361H125.253L131.572 7.82216V2.20513C131.572 2.00453 131.672 1.90422 131.873 1.90422H133.779C133.979 1.90422 134.08 2.00453 134.08 2.20513V12.8374C134.08 13.038 133.979 13.1383 133.779 13.1383H133.478C133.478 13.1383 133.277 13.1383 133.277 13.038L127.058 6.71881V12.6367C127.058 12.8374 126.958 12.9377 126.757 12.9377H124.852C124.651 12.9377 124.551 12.8374 124.551 12.6367V2.00453Z" fill="#6E408D"/>
<path d="M141.904 1.70361C143.509 1.70361 144.612 2.20513 145.715 3.20817C145.816 3.30848 145.816 3.50908 145.715 3.60939L144.512 4.91334C144.411 5.01364 144.211 5.01364 144.111 4.91334C143.509 4.41182 142.706 4.11091 142.004 4.11091C140.199 4.11091 138.895 5.61547 138.895 7.32063C138.895 9.12611 140.199 10.5304 142.004 10.5304C142.706 10.5304 143.509 10.2294 144.111 9.72793C144.211 9.62762 144.411 9.62762 144.512 9.72793L145.715 11.0319C145.816 11.1322 145.816 11.3328 145.715 11.4331C144.612 12.4361 143.308 12.9377 141.904 12.9377C138.694 12.9377 136.187 10.4301 136.187 7.22033C136.187 4.0106 138.694 1.70361 141.904 1.70361Z" fill="#6E408D"/>
<path d="M147.722 2.20521C147.722 2.0046 147.822 1.9043 148.023 1.9043H149.928C150.129 1.9043 150.229 2.0046 150.229 2.20521V12.6368C150.229 12.8374 150.129 12.9377 149.928 12.9377H148.023C147.822 12.9377 147.722 12.8374 147.722 12.6368V2.20521Z" fill="#6E408D"/>
<path d="M153.138 2.20521C153.138 2.0046 153.238 1.9043 153.439 1.9043H155.344C155.545 1.9043 155.645 2.0046 155.645 2.20521V10.6307H159.457C159.657 10.6307 159.758 10.731 159.758 10.9317V12.6368C159.758 12.8374 159.657 12.9377 159.457 12.9377H153.439C153.238 12.9377 153.138 12.8374 153.138 12.6368V2.20521Z" fill="#6E408D"/>
<path d="M169.888 1.70361C173.098 1.70361 175.606 4.21121 175.606 7.42094C175.606 10.6307 173.098 13.1383 169.888 13.1383C166.678 13.1383 164.171 10.6307 164.171 7.42094C164.171 4.21121 166.779 1.70361 169.888 1.70361ZM169.888 10.6307C171.593 10.6307 173.098 9.22641 173.098 7.52124C173.098 5.81608 171.694 4.31152 169.888 4.31152C168.183 4.31152 166.779 5.71577 166.779 7.52124C166.779 9.12611 168.183 10.6307 169.888 10.6307Z" fill="#6E408D"/>
<path d="M177.311 2.20521C177.311 2.0046 177.412 1.9043 177.612 1.9043H184.132C184.333 1.9043 184.433 2.0046 184.433 2.20521V3.91038C184.433 4.11098 184.333 4.21129 184.132 4.21129H179.719V6.51828H183.329C183.53 6.51828 183.63 6.61858 183.63 6.81919V8.52436C183.63 8.72496 183.53 8.82527 183.329 8.82527H179.719V12.6368C179.719 12.8374 179.618 12.9377 179.418 12.9377H177.512C177.311 12.9377 177.211 12.8374 177.211 12.6368V2.20521H177.311Z" fill="#6E408D"/>
<path d="M48.521 20.7612C50.1259 20.7612 51.2292 21.2628 52.3326 22.2658C52.4329 22.3661 52.4329 22.5667 52.3326 22.667L51.1289 23.8707C51.0286 23.971 50.828 23.971 50.7277 23.8707C50.1259 23.3691 49.3235 23.0682 48.6213 23.0682C46.8159 23.0682 45.5119 24.5728 45.5119 26.2779C45.5119 28.0834 46.8159 29.4877 48.6213 29.4877C49.3235 29.4877 50.1259 29.1868 50.7277 28.6852C50.828 28.5849 51.0286 28.5849 51.1289 28.6852L52.3326 29.9892C52.4329 30.0895 52.4329 30.2901 52.3326 30.3904C51.2292 31.3934 49.9253 31.895 48.521 31.895C45.3113 31.895 42.8037 29.3874 42.8037 26.1776C42.8037 22.9679 45.3113 20.7612 48.521 20.7612Z" fill="#6E408D"/>
<path d="M59.1529 20.7612C62.3626 20.7612 64.8702 23.2688 64.8702 26.4786C64.8702 29.6883 62.3626 32.1959 59.1529 32.1959C55.9431 32.1959 53.4355 29.6883 53.4355 26.4786C53.4355 23.2688 56.0435 20.7612 59.1529 20.7612ZM59.1529 29.588C60.858 29.588 62.3626 28.1837 62.3626 26.4786C62.3626 24.7734 60.9583 23.2688 59.1529 23.2688C57.4477 23.2688 56.0435 24.6731 56.0435 26.4786C56.0435 28.1837 57.4477 29.588 59.1529 29.588Z" fill="#6E408D"/>
<path d="M67.3777 20.962C67.3777 20.8617 67.5783 20.6611 67.6786 20.6611H67.9796C68.0799 20.6611 68.1802 20.7614 68.2805 20.8617L71.9917 27.6824L75.703 20.8617C75.703 20.7614 75.9036 20.6611 76.0039 20.6611H76.3048C76.4051 20.6611 76.6057 20.7614 76.6057 20.962L78.2106 31.5943C78.2106 31.7949 78.1103 31.8952 77.9096 31.8952H76.0039C75.9036 31.8952 75.703 31.7949 75.703 31.5943L75.0008 26.6794L72.3929 31.7949C72.3929 31.8952 72.1923 31.9955 72.092 31.9955H71.7911C71.6908 31.9955 71.5905 31.8952 71.4902 31.7949L68.782 26.6794L68.0799 31.5943C68.0799 31.6946 67.9796 31.8952 67.7789 31.8952H65.8732C65.6726 31.8952 65.5723 31.7949 65.5723 31.5943L67.3777 20.962Z" fill="#6E408D"/>
<path d="M81.4207 20.962C81.4207 20.8617 81.6213 20.6611 81.7216 20.6611H82.0225C82.1228 20.6611 82.2231 20.7614 82.3234 20.8617L86.0347 27.6824L89.7459 20.8617C89.7459 20.7614 89.9465 20.6611 90.0468 20.6611H90.3478C90.4481 20.6611 90.6487 20.7614 90.6487 20.962L92.2535 31.5943C92.2535 31.7949 92.1532 31.8952 91.9526 31.8952H90.0468C89.9465 31.8952 89.7459 31.7949 89.7459 31.5943L89.0438 26.6794L86.4359 31.7949C86.4359 31.8952 86.2353 31.9955 86.135 31.9955H85.8341C85.7338 31.9955 85.6335 31.8952 85.5332 31.7949L82.825 26.6794L82.1228 31.5943C82.1228 31.6946 82.0225 31.8952 81.8219 31.8952H79.9161C79.7155 31.8952 79.6152 31.7949 79.6152 31.5943L81.4207 20.962Z" fill="#6E408D"/>
<path d="M93.9587 21.1627C93.9587 20.9621 94.059 20.8618 94.2596 20.8618H96.1654C96.366 20.8618 96.4663 20.9621 96.4663 21.1627V27.5822C96.4663 28.6855 97.2687 29.5883 98.3721 29.5883C99.4754 29.5883 100.378 28.6855 100.378 27.5822V21.1627C100.378 20.9621 100.478 20.8618 100.679 20.8618H102.585C102.785 20.8618 102.886 20.9621 102.886 21.1627V27.6825C102.886 30.0898 100.88 32.0959 98.3721 32.0959C95.8645 32.0959 93.8584 30.0898 93.8584 27.6825V21.1627H93.9587Z" fill="#6E408D"/>
<path d="M104.992 20.962C104.992 20.7614 105.092 20.6611 105.293 20.6611H105.694L112.013 26.7797V21.1627C112.013 20.962 112.114 20.8617 112.314 20.8617H114.22C114.421 20.8617 114.521 20.962 114.521 21.1627V31.7949C114.521 31.9955 114.421 32.0958 114.22 32.0958H113.919C113.919 32.0958 113.719 32.0958 113.719 31.9955L107.5 25.6763V31.5943C107.5 31.7949 107.399 31.8952 107.199 31.8952H105.293C105.092 31.8952 104.992 31.7949 104.992 31.5943V20.962Z" fill="#6E408D"/>
<path d="M117.43 21.1627C117.43 20.9621 117.53 20.8618 117.731 20.8618H119.636C119.837 20.8618 119.937 20.9621 119.937 21.1627V31.5943C119.937 31.7949 119.837 31.8952 119.636 31.8952H117.731C117.53 31.8952 117.43 31.7949 117.43 31.5943V21.1627Z" fill="#6E408D"/>
<path d="M124.25 23.1688H121.943C121.743 23.1688 121.643 23.0685 121.643 22.8679V21.1627C121.643 20.9621 121.743 20.8618 121.943 20.8618H128.965C129.165 20.8618 129.266 20.9621 129.266 21.1627V22.8679C129.266 23.0685 129.165 23.1688 128.965 23.1688H126.658V31.5943C126.658 31.7949 126.557 31.8952 126.357 31.8952H124.451C124.25 31.8952 124.15 31.7949 124.15 31.5943V23.1688H124.25Z" fill="#6E408D"/>
<path d="M133.579 26.5789L130.068 21.2628C129.968 21.0621 130.068 20.7612 130.369 20.7612H132.475C132.575 20.7612 132.676 20.8615 132.776 20.8615L134.983 24.0713L137.189 20.8615C137.189 20.7612 137.29 20.7612 137.49 20.7612H139.597C139.898 20.7612 139.998 21.0621 139.898 21.2628L136.387 26.5789V31.5941C136.387 31.7947 136.287 31.895 136.086 31.895H134.18C133.98 31.895 133.879 31.7947 133.879 31.5941V26.5789H133.579Z" fill="#6E408D"/>
<path d="M144.111 30.3904L144.813 29.0865C144.913 28.8859 145.214 28.8858 145.314 28.9862C145.415 28.9862 146.518 29.8889 147.521 29.8889C148.123 29.8889 148.624 29.4877 148.624 28.9862C148.624 28.284 148.023 27.7825 147.02 27.3813C145.615 26.8798 143.91 25.7764 143.91 23.8707C143.91 22.2658 145.114 20.7612 147.521 20.7612C149.126 20.7612 150.43 21.5637 150.931 21.9649C151.132 22.0652 151.132 22.3661 151.032 22.4664L150.229 23.67C150.129 23.8707 149.828 23.971 149.728 23.8707C149.627 23.7703 148.424 22.9679 147.421 22.9679C146.819 22.9679 146.418 23.3691 146.418 23.7703C146.418 24.3722 146.919 24.7734 148.123 25.2749C149.327 25.7764 151.333 26.7795 151.333 28.8858C151.333 30.4907 149.928 32.1959 147.621 32.1959C145.515 32.1959 144.412 31.2931 144.111 30.9922C144.01 30.6913 143.91 30.6913 144.111 30.3904Z" fill="#6E408D"/>
<path d="M158.454 20.7612C160.059 20.7612 161.162 21.2628 162.265 22.2658C162.366 22.3661 162.366 22.5667 162.265 22.667L161.062 23.971C160.961 24.0713 160.761 24.0713 160.66 23.971C160.059 23.4694 159.256 23.1685 158.554 23.1685C156.748 23.1685 155.445 24.6731 155.445 26.3783C155.445 28.1837 156.748 29.588 158.554 29.588C159.256 29.588 160.059 29.2871 160.66 28.7855C160.761 28.6852 160.961 28.6852 161.062 28.7855L162.265 30.0895C162.366 30.1898 162.366 30.3904 162.265 30.4907C161.162 31.4938 159.858 31.9953 158.454 31.9953C155.244 31.9953 152.736 29.4877 152.736 26.2779C152.736 23.0682 155.244 20.7612 158.454 20.7612Z" fill="#6E408D"/>
<path d="M164.372 21.1627C164.372 20.9621 164.472 20.8618 164.673 20.8618H166.579C166.779 20.8618 166.88 20.9621 166.88 21.1627V25.1749H171.393V21.1627C171.393 20.9621 171.494 20.8618 171.694 20.8618H173.6C173.801 20.8618 173.901 20.9621 173.901 21.1627V31.5943C173.901 31.7949 173.801 31.8952 173.6 31.8952H171.694C171.494 31.8952 171.393 31.7949 171.393 31.5943V27.4819H166.88V31.5943C166.88 31.7949 166.779 31.8952 166.579 31.8952H164.673C164.472 31.8952 164.372 31.7949 164.372 31.5943V21.1627Z" fill="#6E408D"/>
<path d="M181.223 20.7612C184.433 20.7612 186.941 23.2688 186.941 26.4786C186.941 29.6883 184.433 32.1959 181.223 32.1959C178.013 32.1959 175.506 29.6883 175.506 26.4786C175.506 23.2688 178.114 20.7612 181.223 20.7612ZM181.223 29.588C182.928 29.588 184.433 28.1837 184.433 26.4786C184.433 24.7734 183.029 23.2688 181.223 23.2688C179.518 23.2688 178.114 24.6731 178.114 26.4786C178.114 28.1837 179.518 29.588 181.223 29.588Z" fill="#6E408D"/>
<path d="M193.861 20.7612C197.071 20.7612 199.578 23.2688 199.578 26.4786C199.578 29.6883 197.071 32.1959 193.861 32.1959C190.651 32.1959 188.144 29.6883 188.144 26.4786C188.144 23.2688 190.751 20.7612 193.861 20.7612ZM193.861 29.588C195.566 29.588 197.071 28.1837 197.071 26.4786C197.071 24.7734 195.666 23.2688 193.861 23.2688C192.156 23.2688 190.751 24.6731 190.751 26.4786C190.751 28.1837 192.156 29.588 193.861 29.588Z" fill="#6E408D"/>
<path d="M201.384 21.1627C201.384 20.9621 201.484 20.8618 201.685 20.8618H203.59C203.791 20.8618 203.891 20.9621 203.891 21.1627V29.5883H207.703C207.904 29.5883 208.004 29.6886 208.004 29.8892V31.5943C208.004 31.7949 207.904 31.8952 207.703 31.8952H201.785C201.584 31.8952 201.484 31.7949 201.484 31.5943V21.1627H201.384Z" fill="#6E408D"/>
<path d="M208.907 30.3904L209.609 29.0865C209.709 28.8859 210.01 28.8858 210.11 28.9862C210.211 28.9862 211.314 29.8889 212.317 29.8889C212.919 29.8889 213.42 29.4877 213.42 28.9862C213.42 28.284 212.819 27.7825 211.815 27.3813C210.411 26.8798 208.706 25.7764 208.706 23.8707C208.706 22.2658 209.91 20.7612 212.317 20.7612C213.922 20.7612 215.226 21.5637 215.727 21.9649C215.928 22.0652 215.928 22.3661 215.828 22.4664L215.025 23.67C214.925 23.8707 214.624 23.971 214.524 23.8707C214.423 23.7703 213.22 22.9679 212.217 22.9679C211.615 22.9679 211.214 23.3691 211.214 23.7703C211.214 24.3722 211.715 24.7734 212.919 25.2749C214.122 25.7764 216.129 26.7795 216.129 28.8858C216.129 30.4907 214.724 32.1959 212.417 32.1959C210.311 32.1959 209.208 31.2931 208.907 30.9922C208.907 30.6913 208.806 30.6913 208.907 30.3904Z" fill="#6E408D"/>
<path d="M16.6243 32.2966L20.0347 28.8862L3.18359 12.0352V18.7555L16.6243 32.2966Z" fill="#6E408D"/>
<path d="M23.445 18.8557L20.0347 15.4453L30.1654 5.21433V1.9043H26.8553L16.7246 12.035L6.49362 1.9043H3.18359V5.21433L23.445 25.4757L26.2535 22.6672H26.3538L30.1654 18.7554V12.035L23.445 18.8557Z" fill="#6E408D"/>
</svg>
